<svg width="36" height="36" viewBox="0 0 36 36" fill="none" xmlns="http://www.w3.org/2000/svg">
<g id="Frame 48097232">
<rect id="Rectangle 4145" width="36" height="36" rx="18" fill="white"/>
<path id="Path 3414" d="M25.7526 16.0968C25.6738 15.4166 25.3484 14.7855 24.8345 14.3158C24.3206 13.8461 23.6515 13.5682 22.946 13.5316V13.3316C22.9466 12.7627 22.8312 12.1994 22.6063 11.6738C22.3815 11.1482 22.0517 10.6708 21.6359 10.2691C21.2209 9.86621 20.7278 9.54672 20.1851 9.32892C19.6423 9.11113 19.0605 8.99934 18.473 9C17.2871 9.00042 16.1499 9.45699 15.3114 10.2694C14.4728 11.0818 14.0015 12.1836 14.0011 13.3325V13.5347C13.3049 13.5826 12.648 13.8654 12.1447 14.3337C11.6414 14.8021 11.3235 15.4265 11.246 16.0984L10.5 22.682C10.5037 23.5648 10.8688 24.41 11.5152 25.0321C12.1617 25.6542 13.0367 26.0023 13.9479 26H23.0523C23.9635 26.0023 24.8383 25.6542 25.4848 25.0321C26.1312 24.41 26.4963 23.5648 26.5 22.682L25.7526 16.0968ZM15.3144 13.3396C15.3142 12.9378 15.3958 12.5398 15.5544 12.1686C15.7131 11.7973 15.9458 11.46 16.239 11.1758C16.5323 10.8916 16.8803 10.6661 17.2635 10.5123C17.6467 10.3585 18.0574 10.2795 18.4722 10.2795C18.8871 10.2791 19.2979 10.358 19.6812 10.5119C20.0644 10.6657 20.4127 10.8912 20.7058 11.1757C20.9996 11.4596 21.2325 11.7968 21.3914 12.1682C21.5503 12.5395 21.632 12.9376 21.6317 13.3396V13.5252H15.3144V13.3396ZM15.9374 17.8403C15.8332 17.8404 15.7299 17.8206 15.6336 17.782C15.5373 17.7434 15.4498 17.6868 15.3761 17.6154C15.3024 17.544 15.244 17.4592 15.2042 17.3659C15.1644 17.2726 15.1439 17.1726 15.144 17.0717C15.1439 16.9707 15.1644 16.8707 15.2042 16.7774C15.244 16.6841 15.3024 16.5993 15.3761 16.5279C15.4498 16.4565 15.5373 16.3999 15.6336 16.3614C15.7299 16.3228 15.8332 16.303 15.9374 16.3031C16.0418 16.3029 16.1452 16.3225 16.2416 16.3611C16.3381 16.3996 16.4258 16.4561 16.4997 16.5275C16.5736 16.5989 16.6323 16.6837 16.6724 16.777C16.7125 16.8704 16.7331 16.9706 16.7332 17.0717C16.7331 17.1728 16.7125 17.2729 16.6724 17.3662C16.6323 17.4596 16.5736 17.5444 16.4997 17.6158C16.4258 17.6871 16.3381 17.7437 16.2416 17.7822C16.1452 17.8207 16.0418 17.8405 15.9374 17.8403ZM21.0644 17.8403C20.96 17.8405 20.8566 17.8207 20.7602 17.7822C20.6637 17.7437 20.576 17.6871 20.5021 17.6158C20.4282 17.5444 20.3695 17.4596 20.3294 17.3662C20.2893 17.2729 20.2687 17.1728 20.2686 17.0717C20.2687 16.9706 20.2893 16.8704 20.3294 16.777C20.3695 16.6837 20.4282 16.5989 20.5021 16.5275C20.576 16.4561 20.6637 16.3996 20.7602 16.3611C20.8566 16.3225 20.96 16.3029 21.0644 16.3031C21.1686 16.303 21.2717 16.3228 21.368 16.3614C21.4643 16.3999 21.552 16.4565 21.6257 16.5279C21.6994 16.5993 21.7578 16.6841 21.7976 16.7774C21.8374 16.8707 21.8579 16.9707 21.8578 17.0717C21.8579 17.1726 21.8374 17.2726 21.7976 17.3659C21.7578 17.4592 21.6994 17.544 21.6257 17.6154C21.552 17.6868 21.4643 17.7434 21.368 17.782C21.2717 17.8206 21.1686 17.8404 21.0644 17.8403Z" fill="#FE724C"/>
</g>
</svg>
